%TF.GenerationSoftware,Altium Limited,Altium Designer,23.1.1 (15)*%
G04 Layer_Color=16711935*
%FSLAX45Y45*%
%MOMM*%
%TF.SameCoordinates,911EB459-FC51-413D-8FB5-29AF24146691*%
%TF.FilePolarity,Negative*%
%TF.FileFunction,Soldermask,Bot*%
%TF.Part,Single*%
G01*
G75*
%TA.AperFunction,ComponentPad*%
%ADD31R,1.20320X1.20320*%
%ADD32C,1.20320*%
%ADD33C,1.80320*%
G04:AMPARAMS|DCode=34|XSize=1.8032mm|YSize=1.8032mm|CornerRadius=0.5016mm|HoleSize=0mm|Usage=FLASHONLY|Rotation=90.000|XOffset=0mm|YOffset=0mm|HoleType=Round|Shape=RoundedRectangle|*
%AMROUNDEDRECTD34*
21,1,1.80320,0.80000,0,0,90.0*
21,1,0.80000,1.80320,0,0,90.0*
1,1,1.00320,0.40000,0.40000*
1,1,1.00320,0.40000,-0.40000*
1,1,1.00320,-0.40000,-0.40000*
1,1,1.00320,-0.40000,0.40000*
%
%ADD34ROUNDEDRECTD34*%
%ADD35R,1.20320X1.20320*%
%TA.AperFunction,ViaPad*%
%ADD36C,0.91440*%
D31*
X2927000Y2100000D02*
D03*
X2319000Y200000D02*
D03*
D32*
X2800000Y2100000D02*
D03*
X2673000D02*
D03*
X2546000D02*
D03*
X2419000D02*
D03*
X2292000D02*
D03*
X2446000Y200000D02*
D03*
X2573000D02*
D03*
X2700000D02*
D03*
X2827000D02*
D03*
X2954000D02*
D03*
X3700000Y946000D02*
D03*
Y1073000D02*
D03*
Y1200000D02*
D03*
Y1327000D02*
D03*
Y1454000D02*
D03*
D33*
X500000Y1654000D02*
D03*
Y1400000D02*
D03*
X754000Y1654000D02*
D03*
Y1400000D02*
D03*
X500000Y1146000D02*
D03*
X754000D02*
D03*
X500000Y892000D02*
D03*
X754000D02*
D03*
X500000Y638000D02*
D03*
D34*
X754000D02*
D03*
D35*
X3700000Y819000D02*
D03*
D36*
X3300000Y1200000D02*
D03*
X2075000Y1275000D02*
D03*
X2375000Y1800000D02*
D03*
X1300000Y1000000D02*
D03*
Y1275000D02*
D03*
X2500000Y1800000D02*
D03*
X2625000D02*
D03*
X3200000Y2025000D02*
D03*
X2700000Y1325000D02*
D03*
X1750000Y1150000D02*
D03*
X3125000Y775000D02*
D03*
X3000000Y500000D02*
D03*
X3050000Y650000D02*
D03*
%TF.MD5,989be261599386670d0a886570c615d7*%
M02*
