%TF.GenerationSoftware,Altium Limited,Altium Designer,23.1.1 (15)*%
G04 Layer_Color=0*
%FSLAX45Y45*%
%MOMM*%
%TF.SameCoordinates,911EB459-FC51-413D-8FB5-29AF24146691*%
%TF.FilePolarity,Positive*%
%TF.FileFunction,Plated,1,2,PTH,Drill*%
%TF.Part,Single*%
G01*
G75*
%TA.AperFunction,ComponentDrill*%
%ADD38C,0.60000*%
%ADD39C,1.10000*%
%ADD40C,0.60000*%
%TA.AperFunction,ViaDrill,NotFilled*%
%ADD41C,0.71120*%
D38*
X2927000Y2100000D02*
D03*
X2800000D02*
D03*
X2673000D02*
D03*
X2546000D02*
D03*
X2419000D02*
D03*
X2292000D02*
D03*
X2319000Y200000D02*
D03*
X2446000D02*
D03*
X2573000D02*
D03*
X2700000D02*
D03*
X2827000D02*
D03*
X2954000D02*
D03*
D39*
X500000Y1654000D02*
D03*
Y1400000D02*
D03*
X754000Y1654000D02*
D03*
Y1400000D02*
D03*
X500000Y1146000D02*
D03*
X754000D02*
D03*
X500000Y892000D02*
D03*
X754000D02*
D03*
X500000Y638000D02*
D03*
X754000D02*
D03*
D40*
X3700000Y819000D02*
D03*
Y946000D02*
D03*
Y1073000D02*
D03*
Y1200000D02*
D03*
Y1327000D02*
D03*
Y1454000D02*
D03*
D41*
X3300000Y1200000D02*
D03*
X2075000Y1275000D02*
D03*
X2375000Y1800000D02*
D03*
X1300000Y1000000D02*
D03*
Y1275000D02*
D03*
X2500000Y1800000D02*
D03*
X2625000D02*
D03*
X3200000Y2025000D02*
D03*
X2700000Y1325000D02*
D03*
X1750000Y1150000D02*
D03*
X3125000Y775000D02*
D03*
X3000000Y500000D02*
D03*
X3050000Y650000D02*
D03*
%TF.MD5,3c07b2a0c32a3e3fffdc6472554df427*%
M02*
